<svg width="800" height="500" viewBox="0 0 800 500" fill="none" xmlns="http://www.w3.org/2000/svg">
<g clip-path="url(#clip0_2018_85)">
<path d="M0 0H800V500H0V0Z" fill="#74ACDF"/>
<path d="M0 166.67H800V333.34H0V166.67Z" fill="white"/>
<path d="M396.84 251.31L425.294 313.302C425.294 313.302 425.784 314.487 426.574 314.161C427.364 313.834 426.873 312.649 426.873 312.649L403.158 248.693M402.478 272.813C402.131 282.241 407.93 287.426 407.172 295.845C406.415 304.265 411.039 309.025 412.112 312.299C413.185 315.573 410.952 317.531 411.914 317.997C412.877 318.463 414.984 315.877 414.297 311.222C413.61 306.567 410.077 305.185 410.907 294.902C411.737 284.619 406.701 282.224 407.927 272.844" fill="#F6B40E"/>
<path d="M396.84 251.31L425.294 313.302C425.294 313.302 425.784 314.487 426.574 314.161C427.364 313.834 426.873 312.649 426.873 312.649L403.158 248.693M402.478 272.813C402.131 282.241 407.93 287.426 407.172 295.845C406.415 304.265 411.039 309.025 412.112 312.299C413.185 315.573 410.952 317.531 411.914 317.997C412.877 318.463 414.984 315.877 414.297 311.222C413.61 306.567 410.077 305.185 410.907 294.902C411.737 284.619 406.701 282.224 407.927 272.844" stroke="#85340A" stroke-width="1.112"/>
<path d="M396.579 250.001L399.144 318.163C399.144 318.163 399.143 319.445 399.998 319.446C400.853 319.447 400.853 318.164 400.853 318.164L403.418 250.001M393.559 272.025C389.631 280.602 393.004 287.612 389.082 295.1C385.16 302.589 387.611 308.756 387.349 312.192C387.088 315.627 384.275 316.582 384.986 317.38C385.697 318.179 388.633 316.597 389.78 312.033C390.927 307.469 388.192 304.841 392.894 295.658C397.595 286.475 393.859 282.335 398.582 274.139" fill="#F6B40E"/>
<path d="M396.579 250.001L399.144 318.163C399.144 318.163 399.143 319.445 399.998 319.446C400.853 319.447 400.853 318.164 400.853 318.164L403.418 250.001M393.559 272.025C389.631 280.602 393.004 287.612 389.082 295.1C385.16 302.589 387.611 308.756 387.349 312.192C387.088 315.627 384.275 316.582 384.986 317.38C385.697 318.179 388.633 316.597 389.78 312.033C390.927 307.469 388.192 304.841 392.894 295.658C397.595 286.475 393.859 282.335 398.582 274.139" stroke="#85340A" stroke-width="1.112"/>
<path d="M396.839 248.692L373.124 312.647C373.124 312.647 372.633 313.831 373.422 314.159C374.212 314.487 374.703 313.302 374.703 313.302L403.157 251.309M385.621 267.883C378.709 274.305 379.143 282.072 372.654 287.489C366.165 292.907 366.069 299.543 364.512 302.617C362.956 305.69 359.993 305.496 360.343 306.506C360.695 307.516 364.013 307.177 366.819 303.4C369.625 299.623 368.104 296.147 375.962 289.463C383.82 282.779 381.953 277.524 389.452 271.758" fill="#F6B40E"/>
<path d="M396.839 248.692L373.124 312.647C373.124 312.647 372.633 313.831 373.422 314.159C374.212 314.487 374.703 313.302 374.703 313.302L403.157 251.309M385.621 267.883C378.709 274.305 379.143 282.072 372.654 287.489C366.165 292.907 366.069 299.543 364.512 302.617C362.956 305.69 359.993 305.496 360.343 306.506C360.695 307.516 364.013 307.177 366.819 303.4C369.625 299.623 368.104 296.147 375.962 289.463C383.82 282.779 381.953 277.524 389.452 271.758" stroke="#85340A" stroke-width="1.112"/>
<path d="M397.58 247.582L351.196 297.593C351.196 297.593 350.289 298.499 350.892 299.105C351.497 299.709 352.404 298.802 352.404 298.802L402.416 252.417M379.872 261.02C371.029 264.307 368.458 271.649 360.389 274.17C352.321 276.693 349.692 282.787 347.078 285.031C344.464 287.275 341.801 285.961 341.738 287.028C341.676 288.096 344.872 289.053 348.909 286.637C352.947 284.221 352.872 280.428 362.69 277.26C372.508 274.092 372.793 268.523 381.928 266.066" fill="#F6B40E"/>
<path d="M397.58 247.582L351.196 297.593C351.196 297.593 350.289 298.499 350.892 299.105C351.497 299.709 352.404 298.802 352.404 298.802L402.416 252.417M379.872 261.02C371.029 264.307 368.458 271.649 360.389 274.17C352.321 276.693 349.692 282.787 347.078 285.031C344.464 287.275 341.801 285.961 341.738 287.028C341.676 288.096 344.872 289.053 348.909 286.637C352.947 284.221 352.872 280.428 362.69 277.26C372.508 274.092 372.793 268.523 381.928 266.066" stroke="#85340A" stroke-width="1.112"/>
<path d="M404.31 274.41C404.763 283.464 409.897 287.473 408.889 295.724C411.102 289.199 405.765 284.141 406.069 274.504M398.42 250.747L417.907 293.324L401.578 249.437" fill="#85340A"/>
<path d="M394.641 274.201C391.594 282.739 394.803 288.408 390.715 295.645C395.256 290.464 392.261 283.748 396.23 274.961M398.254 250.085L399.965 296.879L401.673 250.084" fill="#85340A"/>
<path d="M385.787 270.308C379.705 277.031 380.501 283.496 373.954 288.617C380.132 285.568 379.935 278.218 386.964 271.618M398.355 249.411L382.027 293.297L401.514 250.718" fill="#85340A"/>
<path d="M379.097 263.323C370.906 267.207 369.167 273.484 361.158 275.71C368.033 275.258 370.664 268.391 379.684 264.984M398.705 248.826L366.827 283.123L401.124 251.242" fill="#85340A"/>
<path d="M398.69 246.84L336.698 275.294C336.698 275.294 335.513 275.784 335.839 276.574C336.166 277.364 337.351 276.873 337.351 276.873L401.307 253.158M377.187 252.478C367.759 252.131 362.574 257.93 354.155 257.172C345.735 256.415 340.975 261.039 337.701 262.112C334.427 263.185 332.469 260.952 332.003 261.914C331.537 262.877 334.123 264.984 338.778 264.297C343.433 263.61 344.815 260.077 355.098 260.907C365.381 261.737 367.776 256.701 377.156 257.927" fill="#F6B40E"/>
<path d="M398.69 246.84L336.698 275.294C336.698 275.294 335.513 275.784 335.839 276.574C336.166 277.364 337.351 276.873 337.351 276.873L401.307 253.158M377.187 252.478C367.759 252.131 362.574 257.93 354.155 257.172C345.735 256.415 340.975 261.039 337.701 262.112C334.427 263.185 332.469 260.952 332.003 261.914C331.537 262.877 334.123 264.984 338.778 264.297C343.433 263.61 344.815 260.077 355.098 260.907C365.381 261.737 367.776 256.701 377.156 257.927" stroke="#85340A" stroke-width="1.112"/>
<path d="M399.999 246.579L331.837 249.144C331.837 249.144 330.555 249.143 330.554 249.998C330.553 250.853 331.836 250.853 331.836 250.853L399.999 253.418M377.975 243.559C369.398 239.631 362.388 243.004 354.9 239.082C347.411 235.16 341.244 237.611 337.808 237.349C334.373 237.088 333.418 234.275 332.62 234.986C331.821 235.697 333.403 238.633 337.967 239.78C342.531 240.927 345.159 238.192 354.342 242.894C363.525 247.595 367.665 243.859 375.861 248.582" fill="#F6B40E"/>
<path d="M399.999 246.579L331.837 249.144C331.837 249.144 330.555 249.143 330.554 249.998C330.553 250.853 331.836 250.853 331.836 250.853L399.999 253.418M377.975 243.559C369.398 239.631 362.388 243.004 354.9 239.082C347.411 235.16 341.244 237.611 337.808 237.349C334.373 237.088 333.418 234.275 332.62 234.986C331.821 235.697 333.403 238.633 337.967 239.78C342.531 240.927 345.159 238.192 354.342 242.894C363.525 247.595 367.665 243.859 375.861 248.582" stroke="#85340A" stroke-width="1.112"/>
<path d="M401.308 246.839L337.353 223.124C337.353 223.124 336.169 222.633 335.841 223.422C335.513 224.212 336.698 224.703 336.698 224.703L398.691 253.157M382.117 235.621C375.695 228.709 367.928 229.143 362.511 222.654C357.093 216.165 350.457 216.069 347.383 214.512C344.31 212.956 344.504 209.993 343.494 210.343C342.484 210.695 342.823 214.013 346.6 216.819C350.377 219.625 353.853 218.104 360.537 225.962C367.221 233.82 372.476 231.953 378.242 239.452" fill="#F6B40E"/>
<path d="M401.308 246.839L337.353 223.124C337.353 223.124 336.169 222.633 335.841 223.422C335.513 224.212 336.698 224.703 336.698 224.703L398.691 253.157M382.117 235.621C375.695 228.709 367.928 229.143 362.511 222.654C357.093 216.165 350.457 216.069 347.383 214.512C344.31 212.956 344.504 209.993 343.494 210.343C342.484 210.695 342.823 214.013 346.6 216.819C350.377 219.625 353.853 218.104 360.537 225.962C367.221 233.82 372.476 231.953 378.242 239.452" stroke="#85340A" stroke-width="1.112"/>
<path d="M402.418 247.58L352.407 201.196C352.407 201.196 351.501 200.289 350.895 200.892C350.291 201.497 351.198 202.404 351.198 202.404L397.583 252.416M388.98 229.872C385.693 221.029 378.351 218.458 375.83 210.389C373.307 202.321 367.213 199.692 364.969 197.078C362.725 194.464 364.039 191.801 362.972 191.738C361.904 191.676 360.947 194.872 363.363 198.909C365.779 202.947 369.572 202.872 372.74 212.69C375.908 222.508 381.477 222.793 383.934 231.928" fill="#F6B40E"/>
<path d="M402.418 247.58L352.407 201.196C352.407 201.196 351.501 200.289 350.895 200.892C350.291 201.497 351.198 202.404 351.198 202.404L397.583 252.416M388.98 229.872C385.693 221.029 378.351 218.458 375.83 210.389C373.307 202.321 367.213 199.692 364.969 197.078C362.725 194.464 364.039 191.801 362.972 191.738C361.904 191.676 360.947 194.872 363.363 198.909C365.779 202.947 369.572 202.872 372.74 212.69C375.908 222.508 381.477 222.793 383.934 231.928" stroke="#85340A" stroke-width="1.112"/>
<path d="M375.59 254.31C366.536 254.763 362.527 259.897 354.276 258.889C360.801 261.102 365.859 255.765 375.496 256.069M399.253 248.42L356.676 267.907L400.563 251.578" fill="#85340A"/>
<path d="M375.799 244.641C367.261 241.594 361.592 244.803 354.355 240.715C359.536 245.256 366.252 242.261 375.039 246.23M399.914 248.254L353.121 249.965L399.916 251.673" fill="#85340A"/>
<path d="M379.692 235.787C372.969 229.705 366.504 230.501 361.383 223.954C364.432 230.132 371.782 229.935 378.382 236.964M400.589 248.355L356.703 232.027L399.282 251.514" fill="#85340A"/>
<path d="M386.677 229.097C382.793 220.906 376.516 219.167 374.29 211.158C374.742 218.033 381.609 220.664 385.016 229.684M401.174 248.705L366.877 216.827L398.758 251.124" fill="#85340A"/>
<path d="M403.16 248.69L374.706 186.698C374.706 186.698 374.216 185.513 373.426 185.839C372.636 186.166 373.127 187.351 373.127 187.351L396.842 251.307M397.522 227.187C397.869 217.759 392.07 212.574 392.828 204.155C393.585 195.735 388.961 190.975 387.888 187.701C386.815 184.427 389.048 182.469 388.086 182.003C387.123 181.537 385.016 184.123 385.703 188.778C386.39 193.433 389.923 194.815 389.093 205.098C388.263 215.381 393.299 217.776 392.073 227.156" fill="#F6B40E"/>
<path d="M403.16 248.69L374.706 186.698C374.706 186.698 374.216 185.513 373.426 185.839C372.636 186.166 373.127 187.351 373.127 187.351L396.842 251.307M397.522 227.187C397.869 217.759 392.07 212.574 392.828 204.155C393.585 195.735 388.961 190.975 387.888 187.701C386.815 184.427 389.048 182.469 388.086 182.003C387.123 181.537 385.016 184.123 385.703 188.778C386.39 193.433 389.923 194.815 389.093 205.098C388.263 215.381 393.299 217.776 392.073 227.156" stroke="#85340A" stroke-width="1.112"/>
<path d="M403.421 249.999L400.856 181.837C400.856 181.837 400.857 180.555 400.002 180.554C399.147 180.553 399.147 181.836 399.147 181.836L396.582 249.999M406.441 227.975C410.369 219.398 406.996 212.388 410.918 204.9C414.84 197.411 412.389 191.244 412.651 187.808C412.912 184.373 415.725 183.418 415.014 182.62C414.303 181.821 411.367 183.403 410.22 187.967C409.073 192.531 411.808 195.159 407.106 204.342C402.405 213.525 406.141 217.665 401.418 225.861" fill="#F6B40E"/>
<path d="M403.421 249.999L400.856 181.837C400.856 181.837 400.857 180.555 400.002 180.554C399.147 180.553 399.147 181.836 399.147 181.836L396.582 249.999M406.441 227.975C410.369 219.398 406.996 212.388 410.918 204.9C414.84 197.411 412.389 191.244 412.651 187.808C412.912 184.373 415.725 183.418 415.014 182.62C414.303 181.821 411.367 183.403 410.22 187.967C409.073 192.531 411.808 195.159 407.106 204.342C402.405 213.525 406.141 217.665 401.418 225.861" stroke="#85340A" stroke-width="1.112"/>
<path d="M403.161 251.308L426.876 187.353C426.876 187.353 427.367 186.169 426.578 185.841C425.788 185.513 425.297 186.698 425.297 186.698L396.843 248.691M414.379 232.117C421.291 225.695 420.857 217.928 427.346 212.511C433.835 207.093 433.931 200.457 435.488 197.383C437.044 194.31 440.007 194.504 439.657 193.494C439.305 192.484 435.987 192.823 433.181 196.6C430.375 200.377 431.896 203.853 424.038 210.537C416.18 217.221 418.047 222.476 410.548 228.242" fill="#F6B40E"/>
<path d="M403.161 251.308L426.876 187.353C426.876 187.353 427.367 186.169 426.578 185.841C425.788 185.513 425.297 186.698 425.297 186.698L396.843 248.691M414.379 232.117C421.291 225.695 420.857 217.928 427.346 212.511C433.835 207.093 433.931 200.457 435.488 197.383C437.044 194.31 440.007 194.504 439.657 193.494C439.305 192.484 435.987 192.823 433.181 196.6C430.375 200.377 431.896 203.853 424.038 210.537C416.18 217.221 418.047 222.476 410.548 228.242" stroke="#85340A" stroke-width="1.112"/>
<path d="M402.42 252.418L448.804 202.407C448.804 202.407 449.711 201.501 449.108 200.895C448.503 200.291 447.596 201.198 447.596 201.198L397.584 247.583M420.128 238.98C428.971 235.693 431.542 228.351 439.611 225.83C447.679 223.307 450.308 217.213 452.922 214.969C455.536 212.725 458.199 214.039 458.262 212.972C458.324 211.904 455.128 210.947 451.091 213.363C447.053 215.779 447.128 219.572 437.31 222.74C427.492 225.908 427.207 231.477 418.072 233.934" fill="#F6B40E"/>
<path d="M402.42 252.418L448.804 202.407C448.804 202.407 449.711 201.501 449.108 200.895C448.503 200.291 447.596 201.198 447.596 201.198L397.584 247.583M420.128 238.98C428.971 235.693 431.542 228.351 439.611 225.83C447.679 223.307 450.308 217.213 452.922 214.969C455.536 212.725 458.199 214.039 458.262 212.972C458.324 211.904 455.128 210.947 451.091 213.363C447.053 215.779 447.128 219.572 437.31 222.74C427.492 225.908 427.207 231.477 418.072 233.934" stroke="#85340A" stroke-width="1.112"/>
<path d="M395.69 225.59C395.237 216.536 390.103 212.527 391.111 204.276C388.898 210.801 394.235 215.859 393.931 225.496M401.58 249.253L382.093 206.676L398.422 250.563" fill="#85340A"/>
<path d="M405.359 225.799C408.406 217.261 405.197 211.592 409.285 204.355C404.744 209.536 407.739 216.252 403.77 225.039M401.746 249.915L400.035 203.121L398.327 249.916" fill="#85340A"/>
<path d="M414.213 229.692C420.295 222.969 419.499 216.504 426.046 211.383C419.868 214.432 420.065 221.782 413.036 228.382M401.645 250.589L417.973 206.703L398.486 249.282" fill="#85340A"/>
<path d="M420.903 236.677C429.094 232.793 430.833 226.516 438.842 224.29C431.967 224.742 429.336 231.609 420.316 235.016M401.295 251.174L433.173 216.877L398.876 248.758" fill="#85340A"/>
<path d="M401.31 253.16L463.302 224.706C463.302 224.706 464.487 224.216 464.161 223.426C463.834 222.636 462.649 223.127 462.649 223.127L398.693 246.842M422.813 247.522C432.241 247.869 437.426 242.07 445.845 242.828C454.265 243.585 459.025 238.961 462.299 237.888C465.573 236.815 467.531 239.048 467.997 238.086C468.463 237.123 465.877 235.016 461.222 235.703C456.567 236.39 455.185 239.923 444.902 239.093C434.619 238.263 432.224 243.299 422.844 242.073" fill="#F6B40E"/>
<path d="M401.31 253.16L463.302 224.706C463.302 224.706 464.487 224.216 464.161 223.426C463.834 222.636 462.649 223.127 462.649 223.127L398.693 246.842M422.813 247.522C432.241 247.869 437.426 242.07 445.845 242.828C454.265 243.585 459.025 238.961 462.299 237.888C465.573 236.815 467.531 239.048 467.997 238.086C468.463 237.123 465.877 235.016 461.222 235.703C456.567 236.39 455.185 239.923 444.902 239.093C434.619 238.263 432.224 243.299 422.844 242.073" stroke="#85340A" stroke-width="1.112"/>
<path d="M400.001 253.421L468.163 250.856C468.163 250.856 469.445 250.857 469.446 250.002C469.447 249.147 468.164 249.147 468.164 249.147L400.001 246.582M422.025 256.441C430.602 260.369 437.612 256.996 445.1 260.918C452.589 264.84 458.756 262.389 462.192 262.651C465.627 262.912 466.582 265.725 467.38 265.014C468.179 264.303 466.597 261.367 462.033 260.22C457.469 259.073 454.841 261.808 445.658 257.106C436.475 252.405 432.335 256.141 424.139 251.418" fill="#F6B40E"/>
<path d="M400.001 253.421L468.163 250.856C468.163 250.856 469.445 250.857 469.446 250.002C469.447 249.147 468.164 249.147 468.164 249.147L400.001 246.582M422.025 256.441C430.602 260.369 437.612 256.996 445.1 260.918C452.589 264.84 458.756 262.389 462.192 262.651C465.627 262.912 466.582 265.725 467.38 265.014C468.179 264.303 466.597 261.367 462.033 260.22C457.469 259.073 454.841 261.808 445.658 257.106C436.475 252.405 432.335 256.141 424.139 251.418" stroke="#85340A" stroke-width="1.112"/>
<path d="M398.692 253.161L462.647 276.876C462.647 276.876 463.831 277.367 464.159 276.578C464.487 275.788 463.302 275.297 463.302 275.297L401.309 246.843M417.883 264.379C424.305 271.291 432.071 270.857 437.489 277.346C442.907 283.835 449.543 283.931 452.616 285.488C455.69 287.044 455.496 290.007 456.506 289.657C457.516 289.305 457.177 285.987 453.4 283.181C449.623 280.375 446.147 281.896 439.463 274.038C432.779 266.18 427.524 268.047 421.758 260.548" fill="#F6B40E"/>
<path d="M398.692 253.161L462.647 276.876C462.647 276.876 463.831 277.367 464.159 276.578C464.487 275.788 463.302 275.297 463.302 275.297L401.309 246.843M417.883 264.379C424.305 271.291 432.071 270.857 437.489 277.346C442.907 283.835 449.543 283.931 452.616 285.488C455.69 287.044 455.496 290.007 456.506 289.657C457.516 289.305 457.177 285.987 453.4 283.181C449.623 280.375 446.147 281.896 439.463 274.038C432.779 266.18 427.524 268.047 421.758 260.548" stroke="#85340A" stroke-width="1.112"/>
<path d="M397.582 252.42L447.593 298.804C447.593 298.804 448.499 299.711 449.105 299.108C449.709 298.503 448.802 297.596 448.802 297.596L402.417 247.584M411.02 270.128C414.307 278.971 421.649 281.542 424.17 289.611C426.693 297.679 432.787 300.308 435.031 302.922C437.275 305.536 435.961 308.199 437.028 308.262C438.096 308.324 439.053 305.128 436.637 301.091C434.221 297.053 430.428 297.128 427.26 287.31C424.092 277.492 418.522 277.207 416.066 268.072" fill="#F6B40E"/>
<path d="M397.582 252.42L447.593 298.804C447.593 298.804 448.499 299.711 449.105 299.108C449.709 298.503 448.802 297.596 448.802 297.596L402.417 247.584M411.02 270.128C414.307 278.971 421.649 281.542 424.17 289.611C426.693 297.679 432.787 300.308 435.031 302.922C437.275 305.536 435.961 308.199 437.028 308.262C438.096 308.324 439.053 305.128 436.637 301.091C434.221 297.053 430.428 297.128 427.26 287.31C424.092 277.492 418.522 277.207 416.066 268.072" stroke="#85340A" stroke-width="1.112"/>
<path d="M424.41 245.69C433.464 245.237 437.473 240.103 445.724 241.111C439.199 238.898 434.141 244.235 424.504 243.931M400.747 251.58L443.324 232.093L399.437 248.422" fill="#85340A"/>
<path d="M424.201 255.359C432.739 258.406 438.408 255.197 445.645 259.285C440.464 254.744 433.748 257.739 424.961 253.77M400.085 251.746L446.879 250.035L400.084 248.327" fill="#85340A"/>
<path d="M420.308 264.213C427.031 270.295 433.496 269.499 438.617 276.046C435.568 269.868 428.218 270.065 421.618 263.036M399.411 251.645L443.297 267.973L400.718 248.486" fill="#85340A"/>
<path d="M413.323 270.903C417.207 279.094 423.484 280.833 425.71 288.842C425.258 281.967 418.391 279.336 414.984 270.316M398.826 251.295L433.123 283.173L401.242 248.876" fill="#85340A"/>
<path d="M400 277.778C415.341 277.778 427.778 265.341 427.778 250C427.778 234.659 415.341 222.222 400 222.222C384.659 222.222 372.222 234.659 372.222 250C372.222 265.341 384.659 277.778 400 277.778Z" fill="#F6B40E" stroke="#85340A" stroke-width="1.5"/>
<path d="M409.47 244.06C407.573 244.06 405.757 244.882 404.689 246.591C406.825 248.514 411.545 248.723 414.751 246.372C414.073 245.65 413.255 245.073 412.347 244.675C411.44 244.278 410.461 244.069 409.47 244.06ZM409.439 244.498C411.285 244.464 413.01 245.312 413.251 246.154C411.115 248.504 407.701 248.3 405.564 246.591C406.499 245.096 408.003 244.524 409.439 244.497V244.498Z" fill="#843511"/>
<path d="M409.83 242.74C407.053 242.74 406.411 243.382 405.13 244.45C403.846 245.518 403.206 245.304 402.993 245.518C402.78 245.733 402.993 246.372 403.419 246.158C403.845 245.944 404.703 245.518 405.983 244.45C407.266 243.38 408.546 243.381 409.829 243.381C413.675 243.381 415.812 246.586 416.239 246.372C416.665 246.158 414.103 242.74 409.83 242.74Z" fill="#85340A"/>
<path d="M417.52 244.02C412.605 239.747 406.41 239.105 402.99 242.311C402.153 243.432 401.617 244.631 401.397 245.881C400.967 248.314 401.727 250.943 403.633 253.637C403.418 253.636 402.99 253.849 402.777 254.064C401.08 250.82 400.48 247.487 401.037 244.318C401.185 243.487 401.41 242.672 401.707 241.882C406.407 238.037 412.817 237.61 417.517 244.02H417.52Z" fill="#85340A"/>
<path d="M409.402 248.073C410.464 248.073 411.325 247.212 411.325 246.15C411.325 245.088 410.464 244.227 409.402 244.227C408.34 244.227 407.479 245.088 407.479 246.15C407.479 247.212 408.34 248.073 409.402 248.073Z" fill="#85340A"/>
<path d="M414.96 247.44C411.327 250.218 407.695 250.004 405.558 248.722C403.422 247.44 403.422 247.013 403.848 247.013C404.275 247.013 404.701 247.44 406.412 248.294C408.122 249.15 410.685 249.15 414.958 247.44H414.96Z" fill="#85340A"/>
<path d="M395.75 253.84C394.837 254.007 394.187 254.817 394.187 255.746C394.187 256.808 395.065 257.652 396.125 257.652C396.432 257.654 396.735 257.581 397.007 257.439C397.279 257.298 397.513 257.092 397.688 256.84C398.427 257.396 399.452 257.455 400 257.465C400.084 257.467 400.193 257.465 400.25 257.465C400.798 257.455 401.823 257.396 402.563 256.84C402.923 257.356 403.498 257.652 404.125 257.652C405.185 257.652 406.063 256.808 406.063 255.746C406.063 254.817 405.413 254.006 404.5 253.84C405.013 254.02 405.344 254.516 405.344 255.059C405.344 255.227 405.311 255.394 405.247 255.549C405.182 255.705 405.088 255.846 404.969 255.965C404.85 256.084 404.709 256.178 404.553 256.243C404.398 256.307 404.231 256.34 404.063 256.34C403.383 256.34 402.821 255.8 402.781 255.121C402.573 255.538 401.747 256.776 400.125 256.84C398.503 256.776 397.678 255.538 397.469 255.121C397.429 255.8 396.869 256.34 396.188 256.34C396.02 256.34 395.853 256.307 395.698 256.243C395.542 256.178 395.401 256.084 395.282 255.965C395.163 255.846 395.069 255.705 395.004 255.549C394.94 255.394 394.907 255.227 394.907 255.059C394.907 254.517 395.237 254.021 395.75 253.84ZM397.84 259.53C395.702 259.53 394.857 261.467 392.934 262.749C394.002 262.322 394.844 261.479 396.34 260.624C397.836 259.769 399.112 260.811 399.965 260.811H399.996C400.849 260.811 402.126 259.77 403.621 260.624C405.118 261.48 405.99 262.322 407.059 262.749C405.135 261.467 404.259 259.53 402.121 259.53C401.695 259.53 400.85 259.76 399.996 260.186H399.965C399.112 259.76 398.267 259.53 397.84 259.53Z" fill="#85340A"/>
<path d="M397.12 262.06C396.276 262.097 395.16 262.267 393.557 262.748C397.405 261.893 398.254 263.185 399.964 263.185H399.994C401.704 263.185 402.554 261.893 406.401 262.747C402.127 261.465 401.277 262.31 399.995 262.31H399.964C399.162 262.31 398.527 261.998 397.12 262.06Z" fill="#85340A"/>
<path d="M393.75 262.72C393.502 262.723 393.231 262.725 392.937 262.751C397.425 263.179 395.268 265.751 399.969 265.751H399.999C404.701 265.751 402.574 263.179 407.062 262.751C402.362 262.325 403.848 265.095 400 265.095H399.969C396.361 265.095 397.473 262.674 393.749 262.72H393.75ZM403.85 269.66C403.849 268.64 403.444 267.662 402.723 266.941C402.002 266.22 401.024 265.815 400.004 265.814C398.984 265.814 398.006 266.22 397.284 266.941C396.563 267.662 396.158 268.64 396.157 269.66C396.363 268.794 396.855 268.024 397.553 267.472C398.251 266.92 399.114 266.62 400.004 266.62C400.894 266.62 401.757 266.92 402.455 267.472C403.153 268.023 403.645 268.794 403.85 269.66Z" fill="#85340A"/>
<path d="M382.73 244.02C387.645 239.747 393.84 239.105 397.26 242.311C398.097 243.432 398.633 244.631 398.853 245.881C399.283 248.314 398.523 250.943 396.617 253.637C396.832 253.636 397.26 253.849 397.473 254.064C399.17 250.82 399.77 247.487 399.213 244.318C399.065 243.487 398.84 242.672 398.543 241.882C393.843 238.037 387.433 237.61 382.733 244.02H382.73Z" fill="#85340A"/>
<path d="M390.42 242.74C393.197 242.74 393.839 243.382 395.12 244.45C396.404 245.518 397.044 245.304 397.257 245.518C397.47 245.733 397.257 246.372 396.831 246.158C396.405 245.944 395.547 245.518 394.267 244.45C392.984 243.38 391.704 243.381 390.421 243.381C386.575 243.381 384.438 246.586 384.011 246.372C383.585 246.158 386.147 242.74 390.42 242.74Z" fill="#85340A"/>
<path d="M390.289 244.06C388.392 244.06 386.576 244.882 385.508 246.591C387.644 248.514 392.364 248.723 395.57 246.372C394.892 245.65 394.074 245.073 393.166 244.675C392.259 244.278 391.28 244.069 390.289 244.06ZM390.258 244.498C392.104 244.464 393.829 245.312 394.07 246.154C391.934 248.504 388.52 248.3 386.383 246.591C387.318 245.096 388.822 244.524 390.258 244.497V244.498Z" fill="#843511"/>
<path d="M390.54 248.073C391.602 248.073 392.463 247.212 392.463 246.15C392.463 245.088 391.602 244.227 390.54 244.227C389.478 244.227 388.617 245.088 388.617 246.15C388.617 247.212 389.478 248.073 390.54 248.073Z" fill="#85340A"/>
<path d="M385.29 247.44C388.923 250.218 392.555 250.004 394.692 248.722C396.828 247.44 396.828 247.013 396.402 247.013C395.975 247.013 395.549 247.44 393.838 248.294C392.128 249.15 389.565 249.15 385.292 247.44H385.29Z" fill="#85340A"/>
</g>
<defs>
<clipPath id="clip0_2018_85">
<rect width="800" height="500" fill="white"/>
</clipPath>
</defs>
</svg>
