<svg width="1200" height="600" viewBox="0 0 1200 600" fill="none" xmlns="http://www.w3.org/2000/svg">
<g clip-path="url(#clip0_2018_138)">
<mask id="mask0_2018_138" style="mask-type:luminance" maskUnits="userSpaceOnUse" x="0" y="0" width="1200" height="600">
<path d="M0 0V600H1200V0H0Z" fill="white"/>
</mask>
<g mask="url(#mask0_2018_138)">
<path d="M0 0V600H1200V0H0Z" fill="#012169"/>
<path d="M0 0L1200 600ZM1200 0L0 600Z" fill="black"/>
<path d="M0 0L1200 600M1200 0L0 600" stroke="white" stroke-width="120"/>
<mask id="mask1_2018_138" style="mask-type:luminance" maskUnits="userSpaceOnUse" x="0" y="0" width="1200" height="600">
<path d="M600 300H1200V600L600 300ZM600 300V600H0L600 300ZM600 300H0V0L600 300ZM600 300V0H1200L600 300Z" fill="white"/>
</mask>
<g mask="url(#mask1_2018_138)">
<path d="M0 0L1200 600ZM1200 0L0 600Z" fill="black"/>
<path d="M0 0L1200 600M1200 0L0 600" stroke="#C8102E" stroke-width="80"/>
</g>
<path d="M600 0V600ZM0 300H1200Z" fill="black"/>
<path d="M600 0V600M0 300H1200" stroke="white" stroke-width="200"/>
<path d="M600 0V600ZM0 300H1200Z" fill="black"/>
<path d="M600 0V600M0 300H1200" stroke="#C8102E" stroke-width="120"/>
</g>
</g>
<defs>
<clipPath id="clip0_2018_138">
<rect width="1200" height="600" fill="white"/>
</clipPath>
</defs>
</svg>
