<svg width="14" height="14" viewBox="0 0 14 14" fill="none" xmlns="http://www.w3.org/2000/svg">
<path d="M6.75034 3.70605C8.59604 3.70605 10.1195 5.22949 10.1195 7.0752C10.1195 8.9502 8.59604 10.4443 6.75034 10.4443C4.87534 10.4443 3.3812 8.9502 3.3812 7.0752C3.3812 5.22949 4.87534 3.70605 6.75034 3.70605ZM6.75034 9.27246C7.95151 9.27246 8.91831 8.30566 8.91831 7.0752C8.91831 5.87402 7.95151 4.90723 6.75034 4.90723C5.51987 4.90723 4.55307 5.87402 4.55307 7.0752C4.55307 8.30566 5.54917 9.27246 6.75034 9.27246ZM11.0277 3.58887C11.0277 4.02832 10.6761 4.37988 10.2367 4.37988C9.79721 4.37988 9.44565 4.02832 9.44565 3.58887C9.44565 3.14941 9.79721 2.79785 10.2367 2.79785C10.6761 2.79785 11.0277 3.14941 11.0277 3.58887ZM13.2542 4.37988C13.3128 5.46387 13.3128 8.71582 13.2542 9.7998C13.1957 10.8545 12.9613 11.7627 12.1996 12.5537C11.4378 13.3154 10.5003 13.5498 9.44565 13.6084C8.36167 13.667 5.10971 13.667 4.02573 13.6084C2.97104 13.5498 2.06284 13.3154 1.27182 12.5537C0.510106 11.7627 0.275731 10.8545 0.217137 9.7998C0.158543 8.71582 0.158543 5.46387 0.217137 4.37988C0.275731 3.3252 0.510106 2.3877 1.27182 1.62598C2.06284 0.864258 2.97104 0.629883 4.02573 0.571289C5.10971 0.512695 8.36167 0.512695 9.44565 0.571289C10.5003 0.629883 11.4378 0.864258 12.1996 1.62598C12.9613 2.3877 13.1957 3.3252 13.2542 4.37988ZM11.848 10.9424C12.1996 10.0928 12.1117 8.04199 12.1117 7.0752C12.1117 6.1377 12.1996 4.08691 11.848 3.20801C11.6136 2.65137 11.1742 2.18262 10.6175 1.97754C9.73862 1.62598 7.68784 1.71387 6.75034 1.71387C5.78354 1.71387 3.73276 1.62598 2.88315 1.97754C2.29721 2.21191 1.85776 2.65137 1.62339 3.20801C1.27182 4.08691 1.35971 6.1377 1.35971 7.0752C1.35971 8.04199 1.27182 10.0928 1.62339 10.9424C1.85776 11.5283 2.29721 11.9678 2.88315 12.2021C3.73276 12.5537 5.78354 12.4658 6.75034 12.4658C7.68784 12.4658 9.73862 12.5537 10.6175 12.2021C11.1742 11.9678 11.6429 11.5283 11.848 10.9424Z" fill="white"/>
<a href="https://www.figma.com/design/9XBC4lPyUoJUWbyYCYn3LG/65%2B-Real-Estate-Website-Templates-(Community)?node-id=2-1556">
<rect fill="black" fill-opacity="0" x="-0.282375" y="-1.125" width="13.125" height="17.25"/>
</a>
</svg>
