<svg width="14" height="14" viewBox="0 0 14 14" fill="none" xmlns="http://www.w3.org/2000/svg">
<path d="M3.29794 13.7002H0.573332V4.94043H3.29794V13.7002ZM1.92099 3.76855C1.07138 3.76855 0.368254 3.03613 0.368254 2.15723C0.368254 1.30762 1.07138 0.604492 1.92099 0.604492C2.79989 0.604492 3.50302 1.30762 3.50302 2.15723C3.50302 3.03613 2.79989 3.76855 1.92099 3.76855ZM13.464 13.7002H10.7686V9.45215C10.7686 8.42676 10.7393 7.1377 9.3331 7.1377C7.92685 7.1377 7.72177 8.22168 7.72177 9.36426V13.7002H4.99716V4.94043H7.60458V6.1416H7.63388C8.01474 5.46777 8.89364 4.73535 10.212 4.73535C12.9659 4.73535 13.4933 6.55176 13.4933 8.89551V13.7002H13.464Z" fill="white"/>
<a href="https://www.figma.com/design/9XBC4lPyUoJUWbyYCYn3LG/65%2B-Real-Estate-Website-Templates-(Community)?node-id=2-1556">
<rect fill="black" fill-opacity="0" x="0.178312" y="-1.125" width="13.125" height="17.25"/>
</a>
</svg>
