<svg width="16" height="13" viewBox="0 0 16 13" fill="none" xmlns="http://www.w3.org/2000/svg">
<path d="M13.5185 3.02832C13.5185 3.1748 13.5185 3.29199 13.5185 3.43848C13.5185 7.51074 10.4423 12.1689 4.78805 12.1689C3.03023 12.1689 1.41891 11.6709 0.07125 10.792C0.305625 10.8213 0.54 10.8506 0.803672 10.8506C2.23922 10.8506 3.55758 10.3525 4.61227 9.53223C3.26461 9.50293 2.12203 8.62402 1.74117 7.39355C1.94625 7.42285 2.12203 7.45215 2.32711 7.45215C2.59078 7.45215 2.88375 7.39355 3.11812 7.33496C1.71187 7.04199 0.657187 5.81152 0.657187 4.31738V4.28809C1.06734 4.52246 1.56539 4.63965 2.06344 4.66895C1.21383 4.1123 0.686484 3.1748 0.686484 2.12012C0.686484 1.53418 0.832969 1.00684 1.09664 0.567383C2.62008 2.41309 4.90523 3.64355 7.45406 3.79004C7.39547 3.55566 7.36617 3.32129 7.36617 3.08691C7.36617 1.3877 8.74312 0.0107422 10.4423 0.0107422C11.3212 0.0107422 12.1123 0.362305 12.6982 0.977539C13.372 0.831055 14.0459 0.567383 14.6318 0.21582C14.3974 0.948242 13.9287 1.53418 13.2841 1.91504C13.8994 1.85645 14.5146 1.68066 15.042 1.44629C14.6318 2.06152 14.1045 2.58887 13.5185 3.02832Z" fill="white"/>
<a href="https://www.figma.com/design/9XBC4lPyUoJUWbyYCYn3LG/65%2B-Real-Estate-Website-Templates-(Community)?node-id=2-1556">
<rect fill="black" fill-opacity="0" x="-0.749063" y="-1.125" width="15" height="17.25"/>
</a>
</svg>
