<svg width="17" height="17" viewBox="0 0 17 17" fill="none" xmlns="http://www.w3.org/2000/svg">
<path d="M16.1602 8.68669C16.1602 8.29558 16.0268 7.96669 15.7602 7.70003C15.4935 7.43336 15.1646 7.30003 14.7735 7.30003H2.66682V2.98003C2.66682 2.62447 2.79127 2.32225 3.04016 2.07336C3.21793 1.89558 3.42238 1.78892 3.65349 1.75336C3.8846 1.7178 4.1246 1.73558 4.37349 1.80669C4.05349 2.30447 3.92905 2.85558 4.00016 3.46003C4.07127 4.06447 4.32016 4.58003 4.74682 5.00669L4.85349 5.16669C4.96016 5.23781 5.07571 5.27336 5.20016 5.27336C5.3246 5.27336 5.42238 5.23781 5.49349 5.16669L8.53349 2.12669C8.64016 2.02003 8.69349 1.90447 8.69349 1.78003C8.69349 1.65558 8.64016 1.54003 8.53349 1.43336L8.42682 1.32669C7.9646 0.864471 7.4046 0.615582 6.74682 0.580027C6.08905 0.544472 5.51127 0.722249 5.01349 1.11336C4.58682 0.864471 4.1246 0.766694 3.62682 0.820027C3.12905 0.873361 2.70238 1.07781 2.34682 1.43336C1.92016 1.86003 1.70682 2.37558 1.70682 2.98003V7.30003H1.54682C1.15571 7.30003 0.826823 7.43336 0.560156 7.70003C0.29349 7.96669 0.160156 8.29558 0.160156 8.68669C0.160156 9.00669 0.249045 9.28225 0.426823 9.51336C0.604601 9.74447 0.817934 9.91336 1.06682 10.02V11.0334C1.06682 11.8867 1.29793 12.6689 1.76016 13.38C2.22238 14.0911 2.80905 14.6422 3.52016 15.0334L3.09349 15.8867C3.02238 16.0289 3.01349 16.1534 3.06682 16.26C3.12016 16.3667 3.20016 16.4556 3.30682 16.5267C3.41349 16.5978 3.52905 16.6067 3.65349 16.5534C3.77793 16.5 3.87571 16.42 3.94682 16.3134L4.42682 15.3534C4.78238 15.4245 5.15571 15.46 5.54682 15.46H10.7735C11.1646 15.46 11.5379 15.4245 11.8935 15.3534L12.3735 16.3134C12.4446 16.42 12.5424 16.5 12.6668 16.5534C12.7913 16.6067 12.9068 16.5978 13.0135 16.5267C13.1202 16.4556 13.2002 16.3667 13.2535 16.26C13.3068 16.1534 13.2979 16.0289 13.2268 15.8867L12.8002 15.0334C13.5113 14.6422 14.0979 14.0911 14.5602 13.38C15.0224 12.6689 15.2535 11.8867 15.2535 11.0334V10.02C15.5024 9.91336 15.7157 9.74447 15.8935 9.51336C16.0713 9.28225 16.1602 9.00669 16.1602 8.68669ZM7.52016 1.80669L5.22682 4.15336C4.97793 3.7978 4.87127 3.42447 4.90682 3.03336C4.94238 2.64225 5.10238 2.30447 5.38682 2.02003C5.67127 1.73558 6.01793 1.57558 6.42682 1.54003C6.83571 1.50447 7.20016 1.59336 7.52016 1.80669ZM1.54682 8.26003H14.7735C14.8802 8.26003 14.9779 8.30447 15.0668 8.39336C15.1557 8.48225 15.2002 8.58892 15.2002 8.71336C15.2002 8.83781 15.1557 8.94447 15.0668 9.03336C14.9779 9.12225 14.8802 9.16669 14.7735 9.16669H1.54682C1.44016 9.16669 1.34238 9.12225 1.25349 9.03336C1.1646 8.94447 1.12016 8.83781 1.12016 8.71336C1.12016 8.58892 1.1646 8.48225 1.25349 8.39336C1.34238 8.30447 1.44016 8.26003 1.54682 8.26003ZM14.2935 11.0334C14.2935 11.6734 14.1335 12.26 13.8135 12.7934C13.4935 13.3267 13.0668 13.7534 12.5335 14.0734C12.0002 14.3934 11.4135 14.5534 10.7735 14.5534H5.54682C4.90682 14.5534 4.32016 14.3934 3.78682 14.0734C3.25349 13.7534 2.82682 13.3267 2.50682 12.7934C2.18682 12.26 2.02682 11.6734 2.02682 11.0334V10.1267H14.2935V11.0334ZM6.93349 5.32669C6.93349 5.46892 6.97793 5.58447 7.06682 5.67336C7.15571 5.76225 7.26238 5.80669 7.38682 5.80669C7.51127 5.80669 7.61793 5.76225 7.70682 5.67336C7.79571 5.58447 7.84016 5.46892 7.84016 5.32669C7.84016 5.18447 7.79571 5.06892 7.70682 4.98003C7.61793 4.89114 7.51127 4.84669 7.38682 4.84669C7.26238 4.84669 7.15571 4.89114 7.06682 4.98003C6.97793 5.06892 6.93349 5.18447 6.93349 5.32669ZM8.26682 3.99336C8.26682 4.13558 8.31127 4.25114 8.40016 4.34003C8.48905 4.42892 8.59571 4.47336 8.72016 4.47336C8.8446 4.47336 8.95127 4.42892 9.04016 4.34003C9.12905 4.25114 9.17349 4.13558 9.17349 3.99336C9.17349 3.85114 9.12905 3.73558 9.04016 3.64669C8.95127 3.55781 8.8446 3.51336 8.72016 3.51336C8.59571 3.51336 8.48905 3.55781 8.40016 3.64669C8.31127 3.73558 8.26682 3.85114 8.26682 3.99336ZM8.58682 5.64669C8.58682 5.75336 8.63127 5.86003 8.72016 5.96669C8.80905 6.07336 8.91571 6.12669 9.04016 6.12669C9.1646 6.12669 9.27127 6.07336 9.36016 5.96669C9.44905 5.86003 9.49349 5.74447 9.49349 5.62003C9.49349 5.49558 9.44905 5.38892 9.36016 5.30003C9.27127 5.21114 9.1646 5.16669 9.04016 5.16669C8.91571 5.16669 8.80905 5.21114 8.72016 5.30003C8.63127 5.38892 8.58682 5.50447 8.58682 5.64669Z" fill="#1A1A1A"/>
</svg>
