<svg width="21" height="20" viewBox="0 0 21 20" fill="none" xmlns="http://www.w3.org/2000/svg">
<path d="M7.875 12.5625C7.875 12.7117 7.81574 12.8548 7.71025 12.9602C7.60476 13.0657 7.46168 13.125 7.3125 13.125H3.5625C3.41332 13.125 3.27024 13.0657 3.16475 12.9602C3.05926 12.8548 3 12.7117 3 12.5625C3 12.4133 3.05926 12.2702 3.16475 12.1648C3.27024 12.0593 3.41332 12 3.5625 12H7.3125C7.46168 12 7.60476 12.0593 7.71025 12.1648C7.81574 12.2702 7.875 12.4133 7.875 12.5625ZM20.625 9.1875V14.8125C20.625 15.1606 20.4867 15.4944 20.2406 15.7406C19.9944 15.9867 19.6606 16.125 19.3125 16.125H10.875V19.3125C10.875 19.4617 10.8157 19.6048 10.7102 19.7102C10.6048 19.8157 10.4617 19.875 10.3125 19.875C10.1633 19.875 10.0202 19.8157 9.91475 19.7102C9.80926 19.6048 9.75 19.4617 9.75 19.3125V16.125H1.3125C0.964403 16.125 0.630564 15.9867 0.384422 15.7406C0.138281 15.4944 0 15.1606 0 14.8125V9.1875C0.0017367 7.74592 0.575172 6.36388 1.59452 5.34453C2.61388 4.32517 3.99592 3.75174 5.4375 3.75H12.75V0.5625C12.75 0.413316 12.8093 0.270242 12.9148 0.164752C13.0202 0.0592632 13.1633 0 13.3125 0H16.3125C16.4617 0 16.6048 0.0592632 16.7102 0.164752C16.8157 0.270242 16.875 0.413316 16.875 0.5625C16.875 0.711684 16.8157 0.854758 16.7102 0.960248C16.6048 1.06574 16.4617 1.125 16.3125 1.125H13.875V3.75H15.1875C16.6291 3.75174 18.0111 4.32517 19.0305 5.34453C20.0498 6.36388 20.6233 7.74592 20.625 9.1875ZM9.75 15V9.1875C9.75 8.04375 9.29565 6.94685 8.4869 6.1381C7.67815 5.32935 6.58125 4.875 5.4375 4.875C4.29375 4.875 3.19685 5.32935 2.3881 6.1381C1.57935 6.94685 1.125 8.04375 1.125 9.1875V14.8125C1.125 14.8622 1.14475 14.9099 1.17992 14.9451C1.21508 14.9802 1.26277 15 1.3125 15H9.75ZM19.5 9.1875C19.4985 8.04421 19.0437 6.94817 18.2353 6.13975C17.4268 5.33132 16.3308 4.87649 15.1875 4.875H13.875V11.8125C13.875 11.9617 13.8157 12.1048 13.7102 12.2102C13.6048 12.3157 13.4617 12.375 13.3125 12.375C13.1633 12.375 13.0202 12.3157 12.9148 12.2102C12.8093 12.1048 12.75 11.9617 12.75 11.8125V4.875H8.74594C9.40813 5.38208 9.94464 6.03486 10.3139 6.78273C10.6831 7.5306 10.8751 8.35346 10.875 9.1875V15H19.3125C19.3622 15 19.4099 14.9802 19.4451 14.9451C19.4802 14.9099 19.5 14.8622 19.5 14.8125V9.1875Z" fill="#1F4B43"/>
</svg>
