<svg width="200" height="56" viewBox="0 0 200 56" fill="none" xmlns="http://www.w3.org/2000/svg">
<g clip-path="url(#clip0_2_1999)">
<g clip-path="url(#clip1_2_1999)">
<g clip-path="url(#clip2_2_1999)">
<path fill-rule="evenodd" clip-rule="evenodd" d="M24.4471 15.3594L24.4353 56.0015L28.7746 55.9894L28.7625 41.8029L36.4281 41.7908L36.416 55.9894H40.9578V0.857422L36.4039 3.87698L36.3983 37.5041L28.8102 37.479L28.8162 7.87174L0 24.5405L0.0387793 47.3892L4.59272 47.4016L4.59861 27.0685L24.4471 15.3594Z" fill="white"/>
<path fill-rule="evenodd" clip-rule="evenodd" d="M16.567 55.7991V24.9243L12.0856 27.5508L12.1802 51.6062L0.0686547 51.5111L0.00878906 55.7749L16.567 55.7991Z" fill="white"/>
<path d="M72.3921 32.9388V18.0063H76.0586V32.9388C76.0586 34.3553 75.7555 35.5619 75.1493 36.5583C74.5431 37.5548 73.717 38.3169 72.6708 38.8444C71.6246 39.372 70.4367 39.6357 69.107 39.6357C67.7479 39.6357 66.5404 39.4061 65.4845 38.9469C64.4383 38.4878 63.6171 37.7844 63.0206 36.8368C62.4242 35.8891 62.126 34.6875 62.126 33.2319H65.8218C65.8218 34.072 65.9538 34.7511 66.2178 35.2689C66.4916 35.7768 66.8729 36.148 67.3617 36.3825C67.8604 36.6072 68.4421 36.7195 69.107 36.7195C69.7425 36.7195 70.3047 36.5779 70.7936 36.2946C71.2922 36.0015 71.6833 35.5765 71.9668 35.0197C72.2504 34.453 72.3921 33.7594 72.3921 32.9388Z" fill="white"/>
<path d="M89.4925 35.6057V23.4868H93.0416V39.3425H89.6978L89.4925 35.6057ZM89.9911 32.3086L91.179 32.2793C91.179 33.3441 91.0617 34.3259 90.8271 35.2247C90.5924 36.1137 90.2306 36.8904 89.7418 37.5547C89.2529 38.2093 88.6272 38.7222 87.8645 39.0934C87.1019 39.4549 86.1877 39.6356 85.122 39.6356C84.3496 39.6356 83.6408 39.5232 82.9955 39.2985C82.3502 39.0738 81.7929 38.727 81.3236 38.2581C80.864 37.7892 80.5072 37.1786 80.253 36.4263C79.9987 35.6741 79.8716 34.7753 79.8716 33.73V23.4868H83.4061V33.7593C83.4061 34.3357 83.4746 34.8193 83.6114 35.2101C83.7483 35.5911 83.9341 35.8988 84.1687 36.1333C84.4034 36.3677 84.6772 36.5338 84.99 36.6315C85.3029 36.7292 85.6353 36.778 85.9873 36.778C86.9944 36.778 87.7863 36.5827 88.3632 36.1919C88.9498 35.7913 89.3654 35.254 89.6098 34.5799C89.864 33.9059 89.9911 33.1487 89.9911 32.3086Z" fill="white"/>
<path d="M105.566 35.049C105.566 34.6973 105.478 34.3798 105.302 34.0965C105.126 33.8034 104.789 33.5396 104.29 33.3051C103.802 33.0707 103.078 32.8557 102.12 32.6604C101.279 32.4747 100.507 32.2549 99.8025 32.0009C99.1083 31.7372 98.5119 31.4197 98.0132 31.0484C97.5146 30.6772 97.1284 30.2376 96.8546 29.7296C96.5809 29.2215 96.444 28.6354 96.444 27.9711C96.444 27.3263 96.5858 26.7157 96.8693 26.1393C97.1528 25.5629 97.5586 25.0549 98.0866 24.6153C98.6145 24.1757 99.2549 23.8289 100.008 23.5749C100.771 23.3208 101.621 23.1938 102.56 23.1938C103.89 23.1938 105.029 23.4185 105.977 23.8679C106.935 24.3076 107.668 24.9084 108.177 25.6704C108.685 26.4226 108.94 27.2726 108.94 28.2202H105.405C105.405 27.8001 105.297 27.4093 105.082 27.0479C104.877 26.6766 104.564 26.3787 104.144 26.154C103.723 25.9195 103.195 25.8023 102.56 25.8023C101.954 25.8023 101.45 25.9 101.049 26.0953C100.658 26.281 100.365 26.5252 100.169 26.828C99.9834 27.1309 99.8905 27.4631 99.8905 27.8245C99.8905 28.0883 99.9394 28.3276 100.037 28.5426C100.145 28.7477 100.321 28.9382 100.565 29.1141C100.81 29.2802 101.142 29.4365 101.563 29.583C101.993 29.7296 102.531 29.8712 103.176 30.008C104.388 30.262 105.429 30.5893 106.3 30.9898C107.18 31.3806 107.854 31.8886 108.324 32.5138C108.793 33.1293 109.028 33.9108 109.028 34.8585C109.028 35.5619 108.876 36.2066 108.573 36.7928C108.28 37.3692 107.849 37.8723 107.282 38.3022C106.715 38.7222 106.036 39.0495 105.244 39.284C104.462 39.5185 103.582 39.6357 102.604 39.6357C101.167 39.6357 99.9491 39.3817 98.9519 38.8737C97.9546 38.3559 97.1968 37.6965 96.6786 36.8954C96.1702 36.0845 95.916 35.2444 95.916 34.3749H99.3332C99.3723 35.0294 99.5532 35.5521 99.8758 35.9429C100.208 36.3239 100.619 36.6023 101.108 36.7781C101.607 36.9442 102.12 37.0273 102.648 37.0273C103.283 37.0273 103.816 36.9442 104.246 36.7781C104.677 36.6023 105.004 36.3679 105.229 36.0749C105.454 35.7719 105.566 35.43 105.566 35.049Z" fill="white"/>
<path d="M119.396 23.4868V26.0659H110.45V23.4868H119.396ZM113.031 19.6035H116.566V34.9609C116.566 35.4494 116.634 35.8255 116.771 36.0893C116.918 36.3433 117.118 36.5143 117.372 36.6022C117.627 36.6901 117.925 36.7341 118.267 36.7341C118.511 36.7341 118.746 36.7194 118.971 36.6901C119.196 36.6608 119.377 36.6315 119.514 36.6022L119.528 39.2985C119.235 39.3865 118.893 39.4646 118.502 39.533C118.12 39.6014 117.68 39.6356 117.182 39.6356C116.37 39.6356 115.652 39.4939 115.026 39.2106C114.4 38.9175 113.911 38.4437 113.559 37.7892C113.207 37.1346 113.031 36.2652 113.031 35.1808V19.6035Z" fill="white"/>
<path d="M136.585 26.916V29.8321H125.248V26.916H136.585ZM126.157 18.0063V39.3426H122.476V18.0063H126.157ZM139.415 18.0063V39.3426H135.749V18.0063H139.415Z" fill="white"/>
<path d="M142.774 31.5906V31.2536C142.774 30.1106 142.94 29.0506 143.272 28.0736C143.605 27.0869 144.084 26.2321 144.71 25.5092C145.345 24.7765 146.118 24.2099 147.027 23.8093C147.946 23.399 148.982 23.1938 150.136 23.1938C151.299 23.1938 152.336 23.399 153.245 23.8093C154.164 24.2099 154.942 24.7765 155.577 25.5092C156.213 26.2321 156.697 27.0869 157.029 28.0736C157.361 29.0506 157.528 30.1106 157.528 31.2536V31.5906C157.528 32.7336 157.361 33.7936 157.029 34.7705C156.697 35.7475 156.213 36.6023 155.577 37.335C154.942 38.0579 154.169 38.6246 153.26 39.0349C152.351 39.4354 151.319 39.6357 150.165 39.6357C149.002 39.6357 147.961 39.4354 147.041 39.0349C146.132 38.6246 145.36 38.0579 144.724 37.335C144.089 36.6023 143.605 35.7475 143.272 34.7705C142.94 33.7936 142.774 32.7336 142.774 31.5906ZM146.308 31.2536V31.5906C146.308 32.3038 146.382 32.9779 146.528 33.6129C146.675 34.2479 146.905 34.8047 147.217 35.2834C147.53 35.7621 147.931 36.1383 148.42 36.4118C148.909 36.6853 149.491 36.8221 150.165 36.8221C150.82 36.8221 151.387 36.6853 151.867 36.4118C152.355 36.1383 152.756 35.7621 153.069 35.2834C153.382 34.8047 153.612 34.2479 153.758 33.6129C153.915 32.9779 153.993 32.3038 153.993 31.5906V31.2536C153.993 30.5502 153.915 29.8859 153.758 29.2606C153.612 28.6256 153.377 28.0639 153.055 27.5754C152.742 27.0869 152.341 26.7059 151.852 26.4324C151.373 26.1491 150.801 26.0074 150.136 26.0074C149.471 26.0074 148.894 26.1491 148.405 26.4324C147.926 26.7059 147.53 27.0869 147.217 27.5754C146.905 28.0639 146.675 28.6256 146.528 29.2606C146.382 29.8859 146.308 30.5502 146.308 31.2536Z" fill="white"/>
<path d="M164.025 26.7108V39.3426H160.49V23.4869H163.819L164.025 26.7108ZM163.453 30.8286L162.25 30.814C162.25 29.7198 162.387 28.7087 162.661 27.7806C162.934 26.8525 163.335 26.0465 163.863 25.3626C164.391 24.669 165.046 24.1366 165.828 23.7654C166.62 23.3844 167.535 23.1938 168.571 23.1938C169.295 23.1938 169.954 23.3013 170.551 23.5162C171.157 23.7214 171.68 24.0487 172.12 24.4981C172.57 24.9474 172.912 25.5238 173.147 26.2272C173.391 26.9306 173.513 27.7806 173.513 28.777V39.3426H169.979V29.0848C169.979 28.313 169.862 27.7073 169.627 27.2677C169.402 26.8281 169.075 26.5154 168.644 26.3298C168.224 26.1344 167.72 26.0367 167.134 26.0367C166.469 26.0367 165.902 26.1637 165.433 26.4177C164.973 26.6717 164.597 27.0186 164.303 27.4582C164.01 27.8978 163.795 28.4058 163.658 28.9822C163.521 29.5586 163.453 30.1741 163.453 30.8286ZM173.293 29.8907L171.636 30.2571C171.636 29.2997 171.768 28.396 172.032 27.5461C172.306 26.6864 172.702 25.9342 173.22 25.2894C173.748 24.6348 174.398 24.1219 175.171 23.7507C175.943 23.3795 176.828 23.1938 177.825 23.1938C178.637 23.1938 179.36 23.3062 179.996 23.5309C180.641 23.7458 181.189 24.0877 181.638 24.5567C182.088 25.0256 182.43 25.6362 182.665 26.3884C182.9 27.1309 183.017 28.0297 183.017 29.0848V39.3426H179.468V29.0701C179.468 28.269 179.35 27.6487 179.116 27.2091C178.891 26.7694 178.568 26.4666 178.148 26.3005C177.727 26.1247 177.224 26.0367 176.637 26.0367C176.09 26.0367 175.606 26.1393 175.185 26.3445C174.775 26.5399 174.428 26.8183 174.144 27.1797C173.861 27.5314 173.645 27.9369 173.499 28.396C173.362 28.8552 173.293 29.3534 173.293 29.8907Z" fill="white"/>
<path d="M193.65 39.6357C192.476 39.6357 191.416 39.4452 190.467 39.0642C189.529 38.6734 188.727 38.1312 188.062 37.4376C187.407 36.744 186.903 35.9283 186.551 34.9904C186.199 34.0526 186.023 33.0414 186.023 31.957V31.3708C186.023 30.1301 186.204 29.0066 186.566 28.0004C186.928 26.9941 187.431 26.1344 188.077 25.4213C188.722 24.6983 189.485 24.1464 190.365 23.7654C191.244 23.3844 192.198 23.1938 193.224 23.1938C194.359 23.1938 195.351 23.3844 196.202 23.7654C197.052 24.1464 197.756 24.6837 198.313 25.3773C198.88 26.0612 199.301 26.8769 199.575 27.8245C199.858 28.7722 200 29.8175 200 30.9605V32.4699H187.739V29.9347H196.51V29.6563C196.49 29.0213 196.363 28.4253 196.128 27.8685C195.903 27.3116 195.556 26.8622 195.087 26.5203C194.618 26.1784 193.992 26.0074 193.21 26.0074C192.623 26.0074 192.1 26.1344 191.64 26.3884C191.191 26.6327 190.814 26.9892 190.511 27.4582C190.208 27.9271 189.973 28.4937 189.807 29.158C189.651 29.8126 189.573 30.5502 189.573 31.3708V31.957C189.573 32.6506 189.665 33.2954 189.851 33.8913C190.047 34.4775 190.33 34.9904 190.702 35.43C191.073 35.8696 191.523 36.2164 192.051 36.4704C192.579 36.7146 193.18 36.8368 193.855 36.8368C194.706 36.8368 195.463 36.6658 196.128 36.3239C196.793 35.9819 197.37 35.4984 197.859 34.8731L199.721 36.6756C199.379 37.1739 198.934 37.6525 198.387 38.1117C197.839 38.5611 197.169 38.9274 196.378 39.2107C195.595 39.494 194.686 39.6357 193.65 39.6357Z" fill="white"/>
</g>
</g>
</g>
<defs>
<clipPath id="clip0_2_1999">
<rect width="200" height="56" fill="white"/>
</clipPath>
<clipPath id="clip1_2_1999">
<rect width="200" height="56" fill="white"/>
</clipPath>
<clipPath id="clip2_2_1999">
<rect width="200" height="56" fill="white"/>
</clipPath>
</defs>
</svg>
