<svg width="16" height="17" viewBox="0 0 16 17" fill="none" xmlns="http://www.w3.org/2000/svg">
<g clip-path="url(#clip0_2_1704)">
<path d="M12.9069 2.63677C12.2313 1.99677 11.4758 1.499 10.6402 1.14344C9.80467 0.787885 8.92467 0.610107 8.00023 0.610107C7.07578 0.610107 6.18689 0.787885 5.33356 1.14344C4.48023 1.499 3.73356 1.99677 3.09356 2.63677C2.45356 3.27677 1.95578 4.02344 1.60023 4.87677C1.24467 5.73011 1.06689 6.619 1.06689 7.54344C1.06689 8.46789 1.24467 9.34789 1.60023 10.1834C1.95578 11.019 2.45356 11.7746 3.09356 12.4501L6.77356 16.1301C7.09356 16.4501 7.49356 16.6101 7.97356 16.6101C8.45356 16.6101 8.87134 16.4501 9.22689 16.1301L12.9069 12.4501C13.5469 11.7746 14.0447 11.019 14.4002 10.1834C14.7558 9.34789 14.9336 8.46789 14.9336 7.54344C14.9336 6.619 14.7558 5.73011 14.4002 4.87677C14.0447 4.02344 13.5469 3.27677 12.9069 2.63677ZM12.2136 11.7568L8.53356 15.4368C8.39134 15.579 8.21356 15.6501 8.00023 15.6501C7.78689 15.6501 7.59134 15.579 7.41356 15.4368L3.73356 11.7568C3.16467 11.1879 2.73801 10.539 2.45356 9.81011C2.16912 9.08122 2.02689 8.31677 2.02689 7.51677C2.02689 6.71677 2.16912 5.95233 2.45356 5.22344C2.73801 4.49455 3.16467 3.85455 3.73356 3.30344C4.30245 2.75233 4.95134 2.32566 5.68023 2.02344C6.40912 1.72122 7.17356 1.57011 7.97356 1.57011C8.77356 1.57011 9.53801 1.72122 10.2669 2.02344C10.9958 2.32566 11.6447 2.74344 12.2136 3.27677C12.9958 4.059 13.5202 4.96566 13.7869 5.99677C14.0536 7.02789 14.0536 8.059 13.7869 9.09011C13.5202 10.1212 12.9958 11.0101 12.2136 11.7568ZM8.00023 5.03677C7.32467 5.03677 6.73801 5.28566 6.24023 5.78344C5.74245 6.28122 5.49356 6.86788 5.49356 7.54344C5.49356 8.219 5.74245 8.79677 6.24023 9.27677C6.73801 9.75677 7.32467 9.99677 8.00023 9.99677C8.67578 9.99677 9.25356 9.75677 9.73356 9.27677C10.2136 8.79677 10.4536 8.219 10.4536 7.54344C10.4536 6.86788 10.2136 6.28122 9.73356 5.78344C9.25356 5.28566 8.67578 5.03677 8.00023 5.03677ZM8.00023 9.09011C7.57356 9.09011 7.20912 8.939 6.90689 8.63677C6.60467 8.33455 6.45356 7.97011 6.45356 7.54344C6.45356 7.11677 6.60467 6.75233 6.90689 6.45011C7.20912 6.14789 7.57356 5.99677 8.00023 5.99677C8.42689 5.99677 8.79134 6.14789 9.09356 6.45011C9.39578 6.75233 9.5469 7.11677 9.5469 7.54344C9.5469 7.97011 9.39578 8.33455 9.09356 8.63677C8.79134 8.939 8.42689 9.09011 8.00023 9.09011Z" fill="#1A1A1A"/>
</g>
<defs>
<clipPath id="clip0_2_1704">
<rect width="16" height="16" fill="white" transform="matrix(1 0 0 -1 0 16.6101)"/>
</clipPath>
</defs>
</svg>
