<svg width="21" height="21" viewBox="0 0 21 21" fill="none" xmlns="http://www.w3.org/2000/svg">
<g clip-path="url(#clip0_2_1577)">
<path d="M15.3502 20.75C13.528 20.75 11.7502 20.4167 10.0169 19.75C8.19464 19.0389 6.58353 17.9722 5.18353 16.55C3.78353 15.1278 2.70575 13.5056 1.9502 11.6833C1.28353 9.95 0.950195 8.17222 0.950195 6.35C0.950195 5.32778 1.20575 4.39444 1.71686 3.55C2.22797 2.70555 2.90575 2.02778 3.7502 1.51667C4.59464 1.00555 5.52797 0.749998 6.5502 0.749998C6.81686 0.749998 6.99464 0.883333 7.08353 1.15L9.61686 7.41667C9.66131 7.55 9.6502 7.69444 9.58353 7.85C9.51686 8.00556 9.41686 8.10555 9.28353 8.15L6.5502 9.28333C6.59464 10.3056 6.88353 11.2611 7.41686 12.15C7.9502 13.0389 8.66131 13.75 9.5502 14.2833C10.4391 14.8167 11.3946 15.1056 12.4169 15.15L13.5502 12.4167C13.5946 12.2833 13.6946 12.1833 13.8502 12.1167C14.0058 12.05 14.1502 12.0389 14.2835 12.0833L20.5502 14.6167C20.8169 14.7056 20.9502 14.8833 20.9502 15.15C20.9502 16.1722 20.6946 17.1056 20.1835 17.95C19.6724 18.7944 18.9946 19.4722 18.1502 19.9833C17.3058 20.4944 16.3724 20.75 15.3502 20.75ZM6.1502 1.95C5.03908 2.03889 4.09464 2.50555 3.31686 3.35C2.53908 4.19444 2.1502 5.19444 2.1502 6.35C2.1502 8.12778 2.48353 9.81667 3.1502 11.4167C3.81686 13.0167 4.77242 14.4389 6.01686 15.6833C7.26131 16.9278 8.68353 17.8833 10.2835 18.55C11.8835 19.2167 13.5724 19.55 15.3502 19.55C16.5058 19.55 17.5058 19.1611 18.3502 18.3833C19.1946 17.6056 19.6613 16.6611 19.7502 15.55L14.4169 13.4167L13.3502 16.0167C13.2613 16.2389 13.0835 16.35 12.8169 16.35C11.4835 16.35 10.2391 16.0167 9.08353 15.35C7.92797 14.6833 7.01686 13.7722 6.3502 12.6167C5.68353 11.4611 5.3502 10.2167 5.3502 8.88333C5.3502 8.61667 5.46131 8.43889 5.68353 8.35L8.28353 7.28333L6.1502 1.95Z" fill="#1F4B43"/>
</g>
<defs>
<clipPath id="clip0_2_1577">
<rect width="20" height="20" fill="white" transform="matrix(1 0 0 -1 0.950195 20.75)"/>
</clipPath>
</defs>
</svg>
