<svg width="16" height="14" viewBox="0 0 16 14" fill="none" xmlns="http://www.w3.org/2000/svg">
<g clip-path="url(#clip0_2_1969)">
<path d="M1.17725 6.62845H13.1879L8.58883 2.24921C8.34801 2.01989 8.33867 1.6389 8.56805 1.39815C8.79713 1.1577 9.17823 1.14807 9.41935 1.37739L14.6717 6.37897C14.8989 6.60648 15.0245 6.90862 15.0245 7.23033C15.0245 7.55172 14.8989 7.85417 14.6611 8.0916L9.41905 13.083C9.30256 13.194 9.15325 13.2491 9.00394 13.2491C8.845 13.2491 8.68606 13.1865 8.56775 13.0622C8.33837 12.8215 8.34771 12.4408 8.58853 12.2115L13.2069 7.8322H1.17725C0.844915 7.8322 0.575195 7.56256 0.575195 7.23033C0.575195 6.89809 0.844915 6.62845 1.17725 6.62845Z" fill="#1F4B43"/>
</g>
<defs>
<clipPath id="clip0_2_1969">
<rect width="15" height="12.84" fill="white" transform="translate(0.299805 0.810059)"/>
</clipPath>
</defs>
</svg>
