<svg width="16" height="13" viewBox="0 0 16 13" fill="none" xmlns="http://www.w3.org/2000/svg">
<path d="M1.17725 5.62845H13.1879L8.58883 1.24921C8.34801 1.01989 8.33867 0.638904 8.56805 0.398154C8.79713 0.157705 9.17823 0.148075 9.41935 0.377389L14.6717 5.37897C14.8989 5.60648 15.0245 5.90862 15.0245 6.23033C15.0245 6.55172 14.8989 6.85417 14.6611 7.0916L9.41905 12.083C9.30256 12.194 9.15325 12.2491 9.00394 12.2491C8.845 12.2491 8.68606 12.1865 8.56775 12.0622C8.33837 11.8215 8.34771 11.4408 8.58853 11.2115L13.2069 6.8322H1.17725C0.844915 6.8322 0.575195 6.56256 0.575195 6.23033C0.575195 5.89809 0.844915 5.62845 1.17725 5.62845Z" fill="white"/>
</svg>
