<svg width="16" height="12" viewBox="0 0 16 12" fill="none" xmlns="http://www.w3.org/2000/svg">
<path d="M14.0267 2.59349H6.98667C6.63111 2.59349 6.29333 2.70015 5.97333 2.91349C5.90222 2.38015 5.68 1.9446 5.30667 1.60682C4.93333 1.26904 4.49778 1.10015 4 1.10015C3.60889 1.10015 3.25333 1.18904 2.93333 1.36682V0.566819C2.93333 0.424597 2.88889 0.309042 2.8 0.220153C2.71111 0.131264 2.59556 0.0868196 2.45333 0.0868196H0.48C0.337778 0.0868196 0.222222 0.131264 0.133333 0.220153C0.0444444 0.309042 0 0.424597 0 0.566819V10.5935C0 10.7357 0.0444444 10.8513 0.133333 10.9402C0.222222 11.029 0.337778 11.0735 0.48 11.0735H2.45333C2.59556 11.0735 2.71111 11.029 2.8 10.9402C2.88889 10.8513 2.93333 10.7357 2.93333 10.5935V9.04682H13.0667V10.5935C13.0667 10.7357 13.1111 10.8513 13.2 10.9402C13.2889 11.029 13.4044 11.0735 13.5467 11.0735H15.52C15.6622 11.0735 15.7778 11.029 15.8667 10.9402C15.9556 10.8513 16 10.7357 16 10.5935V4.56682C16 4.03349 15.8044 3.57126 15.4133 3.18015C15.0222 2.78904 14.56 2.59349 14.0267 2.59349ZM4 2.00682C4.28444 2.00682 4.52444 2.11349 4.72 2.32682C4.91556 2.54015 5.01333 2.78904 5.01333 3.07349C5.01333 3.35793 4.91556 3.59793 4.72 3.79349C4.52444 3.98904 4.28444 4.08682 4 4.08682C3.71556 4.08682 3.46667 3.98904 3.25333 3.79349C3.04 3.59793 2.93333 3.35793 2.93333 3.07349C2.93333 2.78904 3.04 2.54015 3.25333 2.32682C3.46667 2.11349 3.71556 2.00682 4 2.00682ZM2.93333 4.72682C3.25333 4.94015 3.6 5.04682 3.97333 5.04682C4.34667 5.04682 4.69333 4.94015 5.01333 4.72682V6.11349H2.93333V4.72682ZM15.04 10.1135H13.9733V8.56682C13.9733 8.46015 13.9289 8.36238 13.84 8.27349C13.7511 8.1846 13.6533 8.14015 13.5467 8.14015H2.45333C2.34667 8.14015 2.24889 8.1846 2.16 8.27349C2.07111 8.36238 2.02667 8.46015 2.02667 8.56682V10.1135H0.96V1.04682H2.02667V6.59349C2.02667 6.70015 2.07111 6.80682 2.16 6.91349C2.24889 7.02015 2.34667 7.07349 2.45333 7.07349H15.04V10.1135ZM15.04 6.11349H5.97333V4.56682C5.97333 4.28237 6.07111 4.04238 6.26667 3.84682C6.46222 3.65126 6.70222 3.55349 6.98667 3.55349H14.0267C14.3111 3.55349 14.5511 3.65126 14.7467 3.84682C14.9422 4.04238 15.04 4.28237 15.04 4.56682V6.11349Z" fill="#1A1A1A"/>
</svg>
