<svg width="17" height="17" viewBox="0 0 17 17" fill="none" xmlns="http://www.w3.org/2000/svg">
<g clip-path="url(#clip0_2_1716)">
<path d="M13.0034 15.6201H11.0834C10.9767 15.6201 10.8701 15.6734 10.7634 15.7801C10.6567 15.8867 10.6034 16.0023 10.6034 16.1267C10.6034 16.2512 10.6567 16.3579 10.7634 16.4467C10.8701 16.5356 10.9767 16.5801 11.0834 16.5801H13.0034C13.1456 16.5801 13.2612 16.5356 13.3501 16.4467C13.4389 16.3579 13.4834 16.2512 13.4834 16.1267C13.4834 16.0023 13.4389 15.8867 13.3501 15.7801C13.2612 15.6734 13.1456 15.6201 13.0034 15.6201ZM9.21673 15.6201H7.35006C7.20784 15.6201 7.09228 15.6734 7.00339 15.7801C6.9145 15.8867 6.87006 16.0023 6.87006 16.1267C6.87006 16.2512 6.9145 16.3579 7.00339 16.4467C7.09228 16.5356 7.20784 16.5801 7.35006 16.5801H9.21673C9.35895 16.5801 9.4745 16.5356 9.56339 16.4467C9.65228 16.3579 9.69673 16.2512 9.69673 16.1267C9.69673 16.0023 9.65228 15.8867 9.56339 15.7801C9.4745 15.6734 9.35895 15.6201 9.21673 15.6201ZM15.8301 7.14008C15.7234 7.14008 15.6167 7.18452 15.5101 7.27341C15.4034 7.3623 15.3501 7.47786 15.3501 7.62008V9.48674C15.3501 9.62897 15.4034 9.74452 15.5101 9.83341C15.6167 9.9223 15.7323 9.96674 15.8567 9.96674C15.9812 9.96674 16.0878 9.9223 16.1767 9.83341C16.2656 9.74452 16.3101 9.62897 16.3101 9.48674V7.62008C16.3101 7.47786 16.2656 7.3623 16.1767 7.27341C16.0878 7.18452 15.9723 7.14008 15.8301 7.14008ZM15.8301 10.8734C15.7234 10.8734 15.6167 10.9267 15.5101 11.0334C15.4034 11.1401 15.3501 11.2467 15.3501 11.3534V13.2201C15.3501 13.3623 15.4034 13.4779 15.5101 13.5667C15.6167 13.6556 15.7323 13.7001 15.8567 13.7001C15.9812 13.7001 16.0878 13.6556 16.1767 13.5667C16.2656 13.4779 16.3101 13.3623 16.3101 13.2201V11.3534C16.3101 11.2467 16.2656 11.1401 16.1767 11.0334C16.0878 10.9267 15.9723 10.8734 15.8301 10.8734ZM5.48339 15.6201H5.00339V15.1934C5.00339 15.0512 4.95895 14.9356 4.87006 14.8467C4.78117 14.7579 4.66561 14.7134 4.52339 14.7134C4.38117 14.7134 4.26561 14.7579 4.17673 14.8467C4.08784 14.9356 4.04339 15.0512 4.04339 15.1934V16.1001C4.04339 16.2423 4.08784 16.3579 4.17673 16.4467C4.26561 16.5356 4.38117 16.5801 4.52339 16.5801H5.48339C5.59006 16.5801 5.68784 16.5356 5.77673 16.4467C5.86561 16.3579 5.91006 16.2512 5.91006 16.1267C5.91006 16.0023 5.86561 15.8867 5.77673 15.7801C5.68784 15.6734 5.59006 15.6201 5.48339 15.6201ZM15.8301 4.31341H14.9234C14.7812 4.31341 14.6656 4.35786 14.5767 4.44674C14.4878 4.53563 14.4434 4.65119 14.4434 4.79341C14.4434 4.93563 14.4878 5.05119 14.5767 5.14008C14.6656 5.22897 14.7812 5.27341 14.9234 5.27341H15.3501V5.75341C15.3501 5.86008 15.4034 5.95786 15.5101 6.04674C15.6167 6.13563 15.7323 6.18008 15.8567 6.18008C15.9812 6.18008 16.0878 6.13563 16.1767 6.04674C16.2656 5.95786 16.3101 5.86008 16.3101 5.75341V4.79341C16.3101 4.65119 16.2656 4.53563 16.1767 4.44674C16.0878 4.35786 15.9723 4.31341 15.8301 4.31341ZM15.8301 14.7134C15.7234 14.7134 15.6167 14.7579 15.5101 14.8467C15.4034 14.9356 15.3501 15.0512 15.3501 15.1934V15.6201H14.9234C14.7812 15.6201 14.6656 15.6734 14.5767 15.7801C14.4878 15.8867 14.4434 16.0023 14.4434 16.1267C14.4434 16.2512 14.4878 16.3579 14.5767 16.4467C14.6656 16.5356 14.7812 16.5801 14.9234 16.5801H15.8301C15.9723 16.5801 16.0878 16.5356 16.1767 16.4467C16.2656 16.3579 16.3101 16.2423 16.3101 16.1001V15.1934C16.3101 15.0512 16.2656 14.9356 16.1767 14.8467C16.0878 14.7579 15.9723 14.7134 15.8301 14.7134ZM13.0034 4.31341H12.5234V1.06008C12.5234 0.917855 12.4701 0.802299 12.3634 0.713411C12.2567 0.624522 12.1501 0.580078 12.0434 0.580078H0.790059C0.647836 0.580078 0.532281 0.624522 0.443392 0.713411C0.354503 0.802299 0.310059 0.917855 0.310059 1.06008V12.3134C0.310059 12.4201 0.354503 12.5267 0.443392 12.6334C0.532281 12.7401 0.647836 12.7934 0.790059 12.7934H4.04339V13.2201C4.04339 13.3623 4.08784 13.4779 4.17673 13.5667C4.26561 13.6556 4.38117 13.7001 4.52339 13.7001C4.66561 13.7001 4.78117 13.6556 4.87006 13.5667C4.95895 13.4779 5.00339 13.3623 5.00339 13.2201V5.27341H13.0034C13.1456 5.27341 13.2612 5.22897 13.3501 5.14008C13.4389 5.05119 13.4834 4.93563 13.4834 4.79341C13.4834 4.65119 13.4389 4.53563 13.3501 4.44674C13.2612 4.35786 13.1456 4.31341 13.0034 4.31341ZM11.5634 4.31341H4.52339C4.38117 4.31341 4.26561 4.35786 4.17673 4.44674C4.08784 4.53563 4.04339 4.65119 4.04339 4.79341V11.8334H1.27006V1.54008H11.5634V4.31341Z" fill="#1A1A1A"/>
</g>
<defs>
<clipPath id="clip0_2_1716">
<rect width="16" height="16" fill="white" transform="matrix(1 0 0 -1 0.310059 16.5801)"/>
</clipPath>
</defs>
</svg>
